<?xml version="1.0" encoding="UTF-8" standalone="no"?>
<!DOCTYPE svg PUBLIC "-//W3C//DTD SVG 1.0//EN" "http://www.w3.org/TR/2001/PR-SVG-20010719/DTD/svg10.dtd">
<svg width="58cm" height="40cm" viewBox="169 92 1155 788" xmlns="http://www.w3.org/2000/svg" xmlns:xlink="http://www.w3.org/1999/xlink">
  <g>
    <rect style="fill: #1e90ff" x="860.346" y="161.839" width="67.25" height="38"/>
    <rect style="fill: none; fill-opacity:0; stroke-width: 2; stroke: #000000" x="860.346" y="161.839" width="67.25" height="38"/>
    <text font-size="12.8" style="fill: #000000;text-anchor:middle;font-family:sans-serif;font-style:normal;font-weight:normal" x="893.971" y="184.739">
      <tspan x="893.971" y="184.739">un:unit</tspan>
    </text>
  </g>
  <g>
    <rect style="fill: #1e90ff" x="857.05" y="239.645" width="215" height="54"/>
    <rect style="fill: none; fill-opacity:0; stroke-width: 2; stroke: #000000" x="857.05" y="239.645" width="215" height="54"/>
    <text font-size="12.8" style="fill: #000000;text-anchor:middle;font-family:sans-serif;font-style:normal;font-weight:normal" x="964.55" y="270.545">
      <tspan x="964.55" y="270.545">un:measurement related unit</tspan>
    </text>
  </g>
  <g>
    <rect style="fill: #ffa500" x="960.87" y="361.912" width="112.1" height="54"/>
    <rect style="fill: none; fill-opacity:0; stroke-width: 2; stroke: #000000" x="960.87" y="361.912" width="112.1" height="54"/>
    <text font-size="12.8" style="fill: #000000;text-anchor:middle;font-family:sans-serif;font-style:normal;font-weight:normal" x="1016.92" y="392.812">
      <tspan x="1016.92" y="392.812">un:length unit</tspan>
    </text>
  </g>
  <g>
    <line style="fill: none; fill-opacity:0; stroke-width: 2; stroke: #000000" x1="1017.33" y1="360.955" x2="1018.12" y2="305.88"/>
    <polygon style="fill: #ffffff" points="1023.12,305.952 1018.27,295.881 1013.12,305.807 "/>
    <polygon style="fill: none; fill-opacity:0; stroke-width: 2; stroke: #000000" points="1023.12,305.952 1018.27,295.881 1013.12,305.807 "/>
  </g>
  <g>
    <line style="fill: none; fill-opacity:0; stroke-width: 2; stroke: #000000" x1="934.972" y1="238.649" x2="902.857" y2="208.251"/>
    <polygon style="fill: #ffffff" points="906.294,204.62 895.595,201.377 899.42,211.882 "/>
    <polygon style="fill: none; fill-opacity:0; stroke-width: 2; stroke: #000000" points="906.294,204.62 895.595,201.377 899.42,211.882 "/>
  </g>
  <g>
    <path style="fill: #90ee90" d="M 1066.92 593.459 L 1140.47,593.459 C 1150.62,593.459 1158.85,602.414 1158.85,613.459 C 1158.85,624.505 1150.62,633.459 1140.47,633.459 L 1066.92,633.459 C 1056.76,633.459 1048.53,624.505 1048.53,613.459 C 1048.53,602.414 1056.76,593.459 1066.92,593.459z"/>
    <path style="fill: none; fill-opacity:0; stroke-width: 2; stroke: #000000" d="M 1066.92 593.459 L 1140.47,593.459 C 1150.62,593.459 1158.85,602.414 1158.85,613.459 C 1158.85,624.505 1150.62,633.459 1140.47,633.459 L 1066.92,633.459 C 1056.76,633.459 1048.53,624.505 1048.53,613.459 C 1048.53,602.414 1056.76,593.459 1066.92,593.459"/>
    <text font-size="12.8" style="fill: #000000;text-anchor:middle;font-family:sans-serif;font-style:normal;font-weight:normal" x="1103.69" y="617.459">
      <tspan x="1103.69" y="617.459">unit:meter</tspan>
    </text>
  </g>
  <g>
    <path style="fill: #90ee90" d="M 916.173 596.687 L 1012.07,596.687 C 1025.31,596.687 1036.05,604.522 1036.05,614.187 C 1036.05,623.852 1025.31,631.687 1012.07,631.687 L 916.173,631.687 C 902.932,631.687 892.198,623.852 892.198,614.187 C 892.198,604.522 902.932,596.687 916.173,596.687z"/>
    <path style="fill: none; fill-opacity:0; stroke-width: 2; stroke: #000000" d="M 916.173 596.687 L 1012.07,596.687 C 1025.31,596.687 1036.05,604.522 1036.05,614.187 C 1036.05,623.852 1025.31,631.687 1012.07,631.687 L 916.173,631.687 C 902.932,631.687 892.198,623.852 892.198,614.187 C 892.198,604.522 902.932,596.687 916.173,596.687"/>
    <text font-size="12.8" style="fill: #000000;text-anchor:middle;font-family:sans-serif;font-style:normal;font-weight:normal" x="964.123" y="618.187">
      <tspan x="964.123" y="618.187">unit:kilometer</tspan>
    </text>
  </g>
  <g>
    <line style="fill: none; fill-opacity:0; stroke-width: 2; stroke: #000000" x1="207.576" y1="147.913" x2="308.34" y2="147.021"/>
    <polygon style="fill: #ffffff" points="308.385,152.021 318.34,146.933 308.296,142.021 "/>
    <polygon style="fill: none; fill-opacity:0; stroke-width: 2; stroke: #000000" points="308.385,152.021 318.34,146.933 308.296,142.021 "/>
  </g>
  <text font-size="12.8" style="fill: #000000;text-anchor:start;font-family:sans-serif;font-style:normal;font-weight:normal" x="218.576" y="134.913">
    <tspan x="218.576" y="134.913">rdfs:subClassOf</tspan>
  </text>
  <g>
    <line style="fill: none; fill-opacity:0; stroke-width: 2; stroke: #000000" x1="204.576" y1="178.913" x2="316.576" y2="178.002"/>
    <polygon style="fill: #000000" points="316.617,183.002 326.576,177.921 316.536,173.003 "/>
    <polygon style="fill: none; fill-opacity:0; stroke-width: 2; stroke: #000000" points="316.617,183.002 326.576,177.921 316.536,173.003 "/>
  </g>
  <text font-size="12.8" style="fill: #000000;text-anchor:start;font-family:sans-serif;font-style:normal;font-weight:normal" x="232.576" y="168.913">
    <tspan x="232.576" y="168.913">rdf:type</tspan>
  </text>
  <g>
    <line style="fill: none; fill-opacity:0; stroke-width: 2; stroke: #000000" x1="1095.58" y1="592.456" x2="1031.7" y2="427.159"/>
    <polygon style="fill: #000000" points="1036.36,425.357 1028.1,417.831 1027.04,428.961 "/>
    <polygon style="fill: none; fill-opacity:0; stroke-width: 2; stroke: #000000" points="1036.36,425.357 1028.1,417.831 1027.04,428.961 "/>
  </g>
  <g>
    <line style="fill: none; fill-opacity:0; stroke-width: 2; stroke: #000000" x1="968.457" y1="595.694" x2="1007.85" y2="427.623"/>
    <polygon style="fill: #000000" points="1012.72,428.764 1010.13,417.887 1002.98,426.482 "/>
    <polygon style="fill: none; fill-opacity:0; stroke-width: 2; stroke: #000000" points="1012.72,428.764 1010.13,417.887 1002.98,426.482 "/>
  </g>
  <g>
    <path style="fill: #90ee90" d="M 1197.49 594.448 L 1297.69,594.448 C 1311.53,594.448 1322.74,603.403 1322.74,614.448 C 1322.74,625.494 1311.53,634.448 1297.69,634.448 L 1197.49,634.448 C 1183.66,634.448 1172.44,625.494 1172.44,614.448 C 1172.44,603.403 1183.66,594.448 1197.49,594.448z"/>
    <path style="fill: none; fill-opacity:0; stroke-width: 2; stroke: #000000" d="M 1197.49 594.448 L 1297.69,594.448 C 1311.53,594.448 1322.74,603.403 1322.74,614.448 C 1322.74,625.494 1311.53,634.448 1297.69,634.448 L 1197.49,634.448 C 1183.66,634.448 1172.44,625.494 1172.44,614.448 C 1172.44,603.403 1183.66,594.448 1197.49,594.448"/>
    <text font-size="12.8" style="fill: #000000;text-anchor:middle;font-family:sans-serif;font-style:normal;font-weight:normal" x="1247.59" y="618.448">
      <tspan x="1247.59" y="618.448">unit:millimeter</tspan>
    </text>
  </g>
  <g>
    <line style="fill: none; fill-opacity:0; stroke-width: 2; stroke: #000000" x1="1226.12" y1="593.456" x2="1053.43" y2="424.608"/>
    <polygon style="fill: #000000" points="1056.92,421.033 1046.28,417.617 1049.93,428.183 "/>
    <polygon style="fill: none; fill-opacity:0; stroke-width: 2; stroke: #000000" points="1056.92,421.033 1046.28,417.617 1049.93,428.183 "/>
  </g>
  <g>
    <rect style="fill: #1e90ff" x="346.002" y="322.56" width="136.2" height="38"/>
    <rect style="fill: none; fill-opacity:0; stroke-width: 2; stroke: #000000" x="346.002" y="322.56" width="136.2" height="38"/>
    <text font-size="12.8" style="fill: #000000;text-anchor:middle;font-family:sans-serif;font-style:normal;font-weight:normal" x="414.102" y="345.46">
      <tspan x="414.102" y="345.46">me:measurement</tspan>
    </text>
  </g>
  <text font-size="12.8" style="fill: #000000;text-anchor:start;font-family:sans-serif;font-style:normal;font-weight:normal" x="1273.02" y="618.37">
    <tspan x="1273.02" y="618.37"></tspan>
  </text>
  <g>
    <path style="fill: #90ee90" d="M 377.957 666.912 L 449.407,666.912 C 459.272,666.912 467.269,675.866 467.269,686.912 C 467.269,697.958 459.272,706.912 449.407,706.912 L 377.957,706.912 C 368.091,706.912 360.094,697.958 360.094,686.912 C 360.094,675.866 368.091,666.912 377.957,666.912z"/>
    <path style="fill: none; fill-opacity:0; stroke-width: 2; stroke: #000000" d="M 377.957 666.912 L 449.407,666.912 C 459.272,666.912 467.269,675.866 467.269,686.912 C 467.269,697.958 459.272,706.912 449.407,706.912 L 377.957,706.912 C 368.091,706.912 360.094,697.958 360.094,686.912 C 360.094,675.866 368.091,666.912 377.957,666.912"/>
    <text font-size="12.8" style="fill: #000000;text-anchor:middle;font-family:sans-serif;font-style:normal;font-weight:normal" x="413.682" y="690.912">
      <tspan x="413.682" y="690.912">me:length</tspan>
    </text>
  </g>
  <g>
    <rect style="fill: #ffa500" x="323.05" y="528.912" width="181.05" height="38"/>
    <rect style="fill: none; fill-opacity:0; stroke-width: 2; stroke: #000000" x="323.05" y="528.912" width="181.05" height="38"/>
    <text font-size="12.8" style="fill: #000000;text-anchor:middle;font-family:sans-serif;font-style:normal;font-weight:normal" x="413.575" y="551.812">
      <tspan x="413.575" y="551.812">me:length measurement</tspan>
    </text>
  </g>
  <g>
    <line style="fill: none; fill-opacity:0; stroke-width: 2; stroke: #000000" x1="413.626" y1="527.937" x2="414.02" y2="373.771"/>
    <polygon style="fill: #ffffff" points="419.02,373.784 414.045,363.771 409.02,373.758 "/>
    <polygon style="fill: none; fill-opacity:0; stroke-width: 2; stroke: #000000" points="419.02,373.784 414.045,363.771 409.02,373.758 "/>
  </g>
  <g>
    <line style="fill: none; fill-opacity:0; stroke-width: 2; stroke: #000000" x1="413.665" y1="665.923" x2="413.599" y2="578.909"/>
    <polygon style="fill: #000000" points="418.599,578.905 413.591,568.909 408.599,578.912 "/>
    <polygon style="fill: none; fill-opacity:0; stroke-width: 2; stroke: #000000" points="418.599,578.905 413.591,568.909 408.599,578.912 "/>
  </g>
  <g>
    <path style="fill: #a020f0" d="M 376.378 838.048 L 490.178,838.048 C 505.891,838.048 518.628,847.002 518.628,858.048 C 518.628,869.094 505.891,878.048 490.178,878.048 L 376.378,878.048 C 360.665,878.048 347.928,869.094 347.928,858.048 C 347.928,847.002 360.665,838.048 376.378,838.048z"/>
    <path style="fill: none; fill-opacity:0; stroke-width: 2; stroke: #000000" d="M 376.378 838.048 L 490.178,838.048 C 505.891,838.048 518.628,847.002 518.628,858.048 C 518.628,869.094 505.891,878.048 490.178,878.048 L 376.378,878.048 C 360.665,878.048 347.928,869.094 347.928,858.048 C 347.928,847.002 360.665,838.048 376.378,838.048"/>
    <text font-size="12.8" style="fill: #000000;text-anchor:middle;font-family:sans-serif;font-style:normal;font-weight:normal" x="433.278" y="862.048">
      <tspan x="433.278" y="862.048">ex:bed</tspan>
    </text>
  </g>
  <g>
    <rect style="fill: #1e90ff" x="197.1" y="230.912" width="102.95" height="38"/>
    <rect style="fill: none; fill-opacity:0; stroke-width: 2; stroke: #000000" x="197.1" y="230.912" width="102.95" height="38"/>
    <text font-size="12.8" style="fill: #000000;text-anchor:middle;font-family:sans-serif;font-style:normal;font-weight:normal" x="248.575" y="253.812">
      <tspan x="248.575" y="253.812">header class</tspan>
    </text>
  </g>
  <g>
    <rect style="fill: #ffa500" x="199.95" y="289.912" width="87.25" height="38"/>
    <rect style="fill: none; fill-opacity:0; stroke-width: 2; stroke: #000000" x="199.95" y="289.912" width="87.25" height="38"/>
    <text font-size="12.8" style="fill: #000000;text-anchor:middle;font-family:sans-serif;font-style:normal;font-weight:normal" x="243.575" y="312.812">
      <tspan x="243.575" y="312.812">case class</tspan>
    </text>
  </g>
  <g>
    <path style="fill: #90ee90" d="M 198.525 346.912 L 310.625,346.912 C 326.103,346.912 338.65,355.866 338.65,366.912 C 338.65,377.958 326.103,386.912 310.625,386.912 L 198.525,386.912 C 183.047,386.912 170.5,377.958 170.5,366.912 C 170.5,355.866 183.047,346.912 198.525,346.912z"/>
    <path style="fill: none; fill-opacity:0; stroke-width: 2; stroke: #000000" d="M 198.525 346.912 L 310.625,346.912 C 326.103,346.912 338.65,355.866 338.65,366.912 C 338.65,377.958 326.103,386.912 310.625,386.912 L 198.525,386.912 C 183.047,386.912 170.5,377.958 170.5,366.912 C 170.5,355.866 183.047,346.912 198.525,346.912"/>
    <text font-size="12.8" style="fill: #000000;text-anchor:middle;font-family:sans-serif;font-style:normal;font-weight:normal" x="254.575" y="370.912">
      <tspan x="254.575" y="370.912">basic individual</tspan>
    </text>
  </g>
  <g>
    <path style="fill: #a020f0" d="M 201.025 406.912 L 300.125,406.912 C 313.808,406.912 324.9,411.837 324.9,417.912 C 324.9,423.987 313.808,428.912 300.125,428.912 L 201.025,428.912 C 187.342,428.912 176.25,423.987 176.25,417.912 C 176.25,411.837 187.342,406.912 201.025,406.912z"/>
    <path style="fill: none; fill-opacity:0; stroke-width: 2; stroke: #000000" d="M 201.025 406.912 L 300.125,406.912 C 313.808,406.912 324.9,411.837 324.9,417.912 C 324.9,423.987 313.808,428.912 300.125,428.912 L 201.025,428.912 C 187.342,428.912 176.25,423.987 176.25,417.912 C 176.25,411.837 187.342,406.912 201.025,406.912"/>
    <text font-size="12.8" style="fill: #000000;text-anchor:middle;font-family:sans-serif;font-style:normal;font-weight:normal" x="250.575" y="421.912">
      <tspan x="250.575" y="421.912">task individual</tspan>
    </text>
  </g>
  <g>
    <rect style="fill: #1e90ff" x="641.9" y="117.913" width="75.35" height="38"/>
    <rect style="fill: none; fill-opacity:0; stroke-width: 2; stroke: #000000" x="641.9" y="117.913" width="75.35" height="38"/>
    <text font-size="12.8" style="fill: #000000;text-anchor:middle;font-family:sans-serif;font-style:normal;font-weight:normal" x="679.575" y="140.813">
      <tspan x="679.575" y="140.813">quantity</tspan>
    </text>
  </g>
  <g>
    <rect style="fill: #ffa500" x="607.15" y="528.588" width="144.85" height="38"/>
    <rect style="fill: none; fill-opacity:0; stroke-width: 2; stroke: #000000" x="607.15" y="528.588" width="144.85" height="38"/>
    <text font-size="12.8" style="fill: #000000;text-anchor:middle;font-family:sans-serif;font-style:normal;font-weight:normal" x="679.575" y="551.488">
      <tspan x="679.575" y="551.488">length quantity</tspan>
    </text>
  </g>
  <g>
    <line style="fill: none; fill-opacity:0; stroke-width: 2; stroke: #000000" x1="679.575" y1="527.611" x2="679.575" y2="169.126"/>
    <polygon style="fill: #ffffff" points="684.575,169.126 679.575,159.126 674.575,169.126 "/>
    <polygon style="fill: none; fill-opacity:0; stroke-width: 2; stroke: #000000" points="684.575,169.126 679.575,159.126 674.575,169.126 "/>
  </g>
  <g>
    <path style="fill: #a020f0" d="M 685.776 845.912 L 752.376,845.912 C 761.572,845.912 769.026,850.837 769.026,856.912 C 769.026,862.987 761.572,867.912 752.376,867.912 L 685.776,867.912 C 676.58,867.912 669.126,862.987 669.126,856.912 C 669.126,850.837 676.58,845.912 685.776,845.912z"/>
    <path style="fill: none; fill-opacity:0; stroke-width: 2; stroke: #000000" d="M 685.776 845.912 L 752.376,845.912 C 761.572,845.912 769.026,850.837 769.026,856.912 C 769.026,862.987 761.572,867.912 752.376,867.912 L 685.776,867.912 C 676.58,867.912 669.126,862.987 669.126,856.912 C 669.126,850.837 676.58,845.912 685.776,845.912"/>
    <text font-size="12.8" style="fill: #000000;text-anchor:middle;font-family:sans-serif;font-style:normal;font-weight:normal" x="719.076" y="860.912">
      <tspan x="719.076" y="860.912">ex:length</tspan>
    </text>
  </g>
  <g>
    <line style="fill: none; fill-opacity:0; stroke-width: 2; stroke: #000000" x1="519.598" y1="857.705" x2="663.738" y2="857.132"/>
    <polyline style="fill: none; fill-opacity:0; stroke-width: 2; stroke: #000000" points="655.994,862.163 665.974,857.123 655.954,852.163 "/>
  </g>
  <g>
    <line style="fill: none; fill-opacity:0; stroke-width: 2; stroke: #000000" x1="593.904" y1="857.41" x2="453.474" y2="724.558"/>
    <polygon style="fill: #ffffff" points="448.92,713.366 437.493,709.438 442.047,720.63 "/>
    <polygon style="fill: #ffffff" points="456.91,720.925 445.483,716.998 450.038,728.19 "/>
    <polygon style="fill: none; fill-opacity:0; stroke-width: 2; stroke: #000000" points="448.193,712.679 437.493,709.438 441.321,719.943 "/>
    <polygon style="fill: none; fill-opacity:0; stroke-width: 2; stroke: #000000" points="456.91,720.925 446.21,717.685 450.038,728.19 "/>
  </g>
  <g>
    <line style="fill: none; fill-opacity:0; stroke-width: 2; stroke: #000000" x1="210.576" y1="116.913" x2="302.341" y2="116.122"/>
    <polygon style="fill: #ffffff" points="313.384,121.027 324.34,115.932 313.297,111.027 "/>
    <polygon style="fill: #ffffff" points="302.384,121.122 313.34,116.027 302.298,111.122 "/>
    <polygon style="fill: none; fill-opacity:0; stroke-width: 2; stroke: #000000" points="314.383,121.018 324.34,115.932 314.297,111.019 "/>
    <polygon style="fill: none; fill-opacity:0; stroke-width: 2; stroke: #000000" points="302.384,121.122 312.34,116.036 302.298,111.122 "/>
  </g>
  <text font-size="12.8" style="fill: #000000;text-anchor:start;font-family:sans-serif;font-style:normal;font-weight:normal" x="206.576" y="103.913">
    <tspan x="206.576" y="103.913">same individual/IRI</tspan>
  </text>
  <text font-size="12.8" style="fill: #000000;text-anchor:start;font-family:sans-serif;font-style:normal;font-weight:normal" x="819.868" y="857.114">
    <tspan x="819.868" y="857.114">value</tspan>
  </text>
  <g>
    <line style="fill: none; fill-opacity:0; stroke-width: 2; stroke: #000000" x1="769.861" y1="857.014" x2="865.406" y2="857.206"/>
    <polyline style="fill: none; fill-opacity:0; stroke-width: 2; stroke: #000000" points="857.632,862.19 867.642,857.21 857.652,852.19 "/>
  </g>
  <g>
    <path style="fill: #a52a2a" d="M 220.682 438.264 L 263.332,438.264 C 269.73,446.264 271.862,450.264 271.862,458.264 C 271.862,466.264 269.73,470.264 263.332,478.264 L 220.682,478.264 L 212.152,458.264 L 220.682,438.264z"/>
    <path style="fill: none; fill-opacity:0; stroke-width: 2; stroke: #000000" d="M 220.682 438.264 L 263.332,438.264 C 269.73,446.264 271.862,450.264 271.862,458.264 C 271.862,466.264 269.73,470.264 263.332,478.264 L 220.682,478.264 L 212.152,458.264 L 220.682,438.264"/>
    <text font-size="12.8" style="fill: #000000;text-anchor:middle;font-family:sans-serif;font-style:normal;font-weight:normal" x="242.007" y="462.264">
      <tspan x="242.007" y="462.264">literal</tspan>
    </text>
  </g>
  <g>
    <line style="fill: none; fill-opacity:0; stroke-width: 2; stroke: #000000" x1="735.726" y1="845.912" x2="685.374" y2="578.4"/>
    <polygon style="fill: #000000" points="690.288,577.475 683.525,568.573 680.461,579.325 "/>
    <polygon style="fill: none; fill-opacity:0; stroke-width: 2; stroke: #000000" points="690.288,577.475 683.525,568.573 680.461,579.325 "/>
  </g>
  <text font-size="12.8" style="fill: #000000;text-anchor:start;font-family:sans-serif;font-style:normal;font-weight:normal" x="529.576" y="587.64">
    <tspan x="529.576" y="587.64"></tspan>
  </text>
  <g>
    <line style="fill: none; fill-opacity:0; stroke-width: 2; stroke: #000000" x1="210.576" y1="205.64" x2="319.104" y2="205.64"/>
    <polyline style="fill: none; fill-opacity:0; stroke-width: 2; stroke: #000000" points="311.34,210.64 321.34,205.64 311.34,200.64 "/>
  </g>
  <text font-size="12.8" style="fill: #000000;text-anchor:start;font-family:sans-serif;font-style:normal;font-weight:normal" x="238.576" y="199.64">
    <tspan x="238.576" y="199.64">property</tspan>
  </text>
  <text font-size="12.8" style="fill: #000000;text-anchor:start;font-family:sans-serif;font-style:normal;font-weight:normal" x="193.792" y="609.964">
    <tspan x="193.792" y="609.964">not all basic individuals </tspan>
    <tspan x="193.792" y="625.964">and case classes</tspan>
    <tspan x="193.792" y="641.964"> are shown.</tspan>
  </text>
  <g>
    <path style="fill: #90ee90" d="M 492.625 668.64 L 558.525,668.64 C 567.624,668.64 575,677.594 575,688.64 C 575,699.686 567.624,708.64 558.525,708.64 L 492.625,708.64 C 483.526,708.64 476.15,699.686 476.15,688.64 C 476.15,677.594 483.526,668.64 492.625,668.64z"/>
    <path style="fill: none; fill-opacity:0; stroke-width: 2; stroke: #000000" d="M 492.625 668.64 L 558.525,668.64 C 567.624,668.64 575,677.594 575,688.64 C 575,699.686 567.624,708.64 558.525,708.64 L 492.625,708.64 C 483.526,708.64 476.15,699.686 476.15,688.64 C 476.15,677.594 483.526,668.64 492.625,668.64"/>
    <text font-size="12.8" style="fill: #000000;text-anchor:middle;font-family:sans-serif;font-style:normal;font-weight:normal" x="525.575" y="692.64">
      <tspan x="525.575" y="692.64">me:width</tspan>
    </text>
  </g>
  <g>
    <line style="fill: none; fill-opacity:0; stroke-width: 2; stroke: #000000" x1="508.861" y1="667.639" x2="436.346" y2="576.524"/>
    <polygon style="fill: #000000" points="440.258,573.41 430.119,568.699 432.434,579.637 "/>
    <polygon style="fill: none; fill-opacity:0; stroke-width: 2; stroke: #000000" points="440.258,573.41 430.119,568.699 432.434,579.637 "/>
  </g>
  <g>
    <path style="fill: #a020f0" d="M 649.743 805.64 L 710.409,805.64 C 718.786,805.64 725.576,811.236 725.576,818.14 C 725.576,825.044 718.786,830.64 710.409,830.64 L 649.743,830.64 C 641.366,830.64 634.576,825.044 634.576,818.14 C 634.576,811.236 641.366,805.64 649.743,805.64z"/>
    <path style="fill: none; fill-opacity:0; stroke-width: 2.35099e-037; stroke: #000000" d="M 649.743 805.64 L 710.409,805.64 C 718.786,805.64 725.576,811.236 725.576,818.14 C 725.576,825.044 718.786,830.64 710.409,830.64 L 649.743,830.64 C 641.366,830.64 634.576,825.044 634.576,818.14 C 634.576,811.236 641.366,805.64 649.743,805.64"/>
    <text font-size="12.8" style="fill: #000000;text-anchor:middle;font-family:sans-serif;font-style:normal;font-weight:normal" x="680.076" y="822.14">
      <tspan x="680.076" y="822.14">ex:width</tspan>
    </text>
  </g>
  <g>
    <path style="fill: #a52a2a" d="M 877.618 796.396 L 919.046,796.396 L 927.332,816.396 L 919.046,836.396 L 877.618,836.396 L 869.332,816.396 L 877.618,796.396z"/>
    <path style="fill: none; fill-opacity:0; stroke-width: 2; stroke: #000000" d="M 877.618 796.396 L 919.046,796.396 L 927.332,816.396 L 919.046,836.396 L 877.618,836.396 L 869.332,816.396 L 877.618,796.396"/>
    <text font-size="12.8" style="fill: #000000;text-anchor:middle;font-family:sans-serif;font-style:normal;font-weight:normal" x="898.332" y="820.396">
      <tspan x="898.332" y="820.396">2.0</tspan>
    </text>
  </g>
  <g>
    <line style="fill: none; fill-opacity:0; stroke-width: 2; stroke: #000000" x1="725.546" y1="817.79" x2="864.154" y2="816.723"/>
    <polyline style="fill: none; fill-opacity:0; stroke-width: 2; stroke: #000000" points="856.429,821.783 866.39,816.706 856.352,811.783 "/>
  </g>
  <g>
    <line style="fill: none; fill-opacity:0; stroke-width: 2; stroke: #000000" x1="510.35" y1="842.768" x2="630.189" y2="819.01"/>
    <polyline style="fill: none; fill-opacity:0; stroke-width: 2; stroke: #000000" points="623.546,825.424 632.383,818.575 621.601,815.615 "/>
  </g>
  <g>
    <line style="fill: none; fill-opacity:0; stroke-width: 2; stroke: #000000" x1="572.464" y1="830.454" x2="540.126" y2="732.649"/>
    <polygon style="fill: #ffffff" points="541.42,720.636 533.22,711.762 531.926,723.775 "/>
    <polygon style="fill: #ffffff" points="544.873,731.08 536.673,722.206 535.379,734.219 "/>
    <polygon style="fill: none; fill-opacity:0; stroke-width: 2; stroke: #000000" points="541.106,719.686 533.22,711.762 531.612,722.826 "/>
    <polygon style="fill: none; fill-opacity:0; stroke-width: 2; stroke: #000000" points="544.873,731.08 536.987,723.155 535.379,734.219 "/>
  </g>
  <g>
    <line style="fill: none; fill-opacity:0; stroke-width: 2; stroke: #000000" x1="680.051" y1="805.635" x2="679.598" y2="577.588"/>
    <polygon style="fill: #000000" points="684.598,577.578 679.578,567.588 674.598,577.598 "/>
    <polygon style="fill: none; fill-opacity:0; stroke-width: 2; stroke: #000000" points="684.598,577.578 679.578,567.588 674.598,577.598 "/>
  </g>
  <text font-size="12.8" style="fill: #000000;text-anchor:start;font-family:sans-serif;font-style:normal;font-weight:normal" x="797.086" y="817.24">
    <tspan x="797.086" y="817.24">value</tspan>
  </text>
  <g>
    <path style="fill: #a52a2a" d="M 527.376 213.64 L 603.776,213.64 L 619.056,233.64 L 603.776,253.64 L 527.376,253.64 L 512.096,233.64 L 527.376,213.64z"/>
    <path style="fill: none; fill-opacity:0; stroke-width: 2; stroke: #000000" d="M 527.376 213.64 L 603.776,213.64 L 619.056,233.64 L 603.776,253.64 L 527.376,253.64 L 512.096,233.64 L 527.376,213.64"/>
    <text font-size="12.8" style="fill: #000000;text-anchor:middle;font-family:sans-serif;font-style:normal;font-weight:normal" x="565.576" y="237.64">
      <tspan x="565.576" y="237.64">xsd:double</tspan>
    </text>
  </g>
  <g>
    <line style="fill: none; fill-opacity:0; stroke-width: 2; stroke: #000000" x1="659.173" y1="156.903" x2="605.476" y2="209.516"/>
    <polyline style="fill: none; fill-opacity:0; stroke-width: 2; stroke: #000000" points="607.523,200.511 603.879,211.081 614.521,207.654 "/>
  </g>
  <text font-size="12.8" style="fill: #000000;text-anchor:start;font-family:sans-serif;font-style:normal;font-weight:normal" x="630.728" y="184.775">
    <tspan x="630.728" y="184.775">value</tspan>
  </text>
  <g>
    <path style="fill: #a52a2a" d="M 878.346 837.29 L 919.774,837.29 L 928.06,857.29 L 919.774,877.29 L 878.346,877.29 L 870.06,857.29 L 878.346,837.29z"/>
    <path style="fill: none; fill-opacity:0; stroke-width: 2; stroke: #000000" d="M 878.346 837.29 L 919.774,837.29 L 928.06,857.29 L 919.774,877.29 L 878.346,877.29 L 870.06,857.29 L 878.346,837.29"/>
    <text font-size="12.8" style="fill: #000000;text-anchor:middle;font-family:sans-serif;font-style:normal;font-weight:normal" x="899.06" y="861.29">
      <tspan x="899.06" y="861.29">2.0</tspan>
    </text>
  </g>
  <g>
    <line style="fill: none; fill-opacity:0; stroke-width: 2; stroke: #000000" x1="452.972" y1="666.325" x2="637.573" y2="569.596"/>
    <polyline style="fill: none; fill-opacity:0; stroke-width: 2; stroke: #000000" points="633.017,577.629 639.554,568.558 628.376,568.771 "/>
  </g>
  <g>
    <line style="fill: none; fill-opacity:0; stroke-width: 2; stroke: #000000" x1="545.834" y1="667.647" x2="640.257" y2="569.806"/>
    <polyline style="fill: none; fill-opacity:0; stroke-width: 2; stroke: #000000" points="638.463,578.865 641.81,568.197 631.268,571.921 "/>
  </g>
  <g>
    <line style="fill: none; fill-opacity:0; stroke-width: 2; stroke: #000000" x1="718.23" y1="144.833" x2="854.958" y2="172.846"/>
    <polyline style="fill: none; fill-opacity:0; stroke-width: 2; stroke: #000000" points="846.349,176.186 857.149,173.295 848.356,166.39 "/>
  </g>
  <text font-size="12.7998" style="fill: #000000;text-anchor:start;font-family:sans-serif;font-style:normal;font-weight:normal" x="788.785" y="159.288">
    <tspan x="788.785" y="159.288">quantified in</tspan>
  </text>
  <g>
    <line style="fill: none; fill-opacity:0; stroke-width: 2; stroke: #000000" x1="722.093" y1="527.589" x2="955.829" y2="417.647"/>
    <polyline style="fill: none; fill-opacity:0; stroke-width: 2; stroke: #000000" points="950.932,425.476 957.853,416.696 946.675,416.427 "/>
  </g>
  <text font-size="12.7998" style="fill: #000000;text-anchor:start;font-family:sans-serif;font-style:normal;font-weight:normal" x="840.985" y="471.666">
    <tspan x="840.985" y="471.666">length quantified in</tspan>
  </text>
  <text font-size="12.7998" style="fill: #000000;text-anchor:start;font-family:sans-serif;font-style:normal;font-weight:normal" x="749.157" y="273.782">
    <tspan x="749.157" y="273.782">subPropertyOf</tspan>
    <tspan x="749.157" y="289.782"></tspan>
  </text>
  <g>
    <line style="fill: none; fill-opacity:0; stroke-width: 2; stroke: #000000" x1="840.985" y1="471.666" x2="790.802" y2="171.357"/>
    <polygon style="fill: #ffffff" points="795.733,170.533 789.153,161.494 785.87,172.181 "/>
    <polygon style="fill: none; fill-opacity:0; stroke-width: 2; stroke: #000000" points="795.733,170.533 789.153,161.494 785.87,172.181 "/>
  </g>
  <text font-size="12.7998" style="fill: #000000;text-anchor:start;font-family:sans-serif;font-style:normal;font-weight:normal" x="814.885" y="315.477">
    <tspan x="814.885" y="315.477">subPropertyOf</tspan>
    <tspan x="814.885" y="331.477"></tspan>
  </text>
  <g>
    <line style="fill: none; fill-opacity:0; stroke-width: 2; stroke: #000000" x1="705.957" y1="805.635" x2="1057.82" y2="635.625"/>
    <polyline style="fill: none; fill-opacity:0; stroke-width: 2; stroke: #000000" points="1053,643.504 1059.83,634.652 1048.65,634.5 "/>
  </g>
  <g>
    <line style="fill: none; fill-opacity:0; stroke-width: 2; stroke: #000000" x1="737.95" y1="844.965" x2="1066.74" y2="636.847"/>
    <polyline style="fill: none; fill-opacity:0; stroke-width: 2; stroke: #000000" points="1062.86,645.225 1068.63,635.651 1057.51,636.775 "/>
  </g>
  <text font-size="12.7998" style="fill: #000000;text-anchor:start;font-family:sans-serif;font-style:normal;font-weight:normal" x="883.901" y="719.657">
    <tspan x="883.901" y="719.657">quantified in</tspan>
  </text>
  <text font-size="12.7998" style="fill: #000000;text-anchor:start;font-family:sans-serif;font-style:normal;font-weight:normal" x="904.236" y="739.71">
    <tspan x="904.236" y="739.71">quantified in</tspan>
  </text>
</svg>
